<svg id="Layer_1" data-name="Layer 1" xmlns="http://www.w3.org/2000/svg" viewBox="0 0 100 100"><defs><style>.cls-1,.cls-3{fill:#fff;}.cls-2{fill:#727272;}.cls-3{stroke:#707070;stroke-width:0.75px;}</style></defs><rect width="100" height="100"/><g id="Group_5" data-name="Group 5"><g id="Group_1" data-name="Group 1"><path id="Path_1" data-name="Path 1" class="cls-1" d="M33.4,28.6V75.8h.1L57.1,52.3Z" transform="translate(0 0)"/></g><g id="Group_2" data-name="Group 2"><path id="Path_2" data-name="Path 2" class="cls-2" d="M80.7,28.6H33.4L57.1,52.3,33.5,75.8H80.7Z" transform="translate(0 0)"/></g><g id="Group_3" data-name="Group 3"><path id="Path_3" data-name="Path 3" class="cls-3" d="M24.7,85.5a.8.8,0,0,1-.8-.8,1.4,1.4,0,0,1,.2-.6L56,52.3,19.6,15.9a.8.8,0,0,1-.1-1.1.8.8,0,0,1,1.2-.1h0l37,36.9a.8.8,0,0,1,0,1.1L25.2,85.3Z" transform="translate(0 0)"/></g></g></svg>