<svg id="Layer_1" data-name="Layer 1" xmlns="http://www.w3.org/2000/svg" viewBox="0 0 1137.4 546.7"><defs><style>.cls-1,.cls-3,.cls-5{fill:#fff;}.cls-2{fill:#727272;}.cls-3{stroke:#707070;stroke-width:4px;}.cls-4,.cls-5{isolation:isolate;}.cls-5{font-size:122.81px;font-family:FilsonProBook, Filson Pro;}</style></defs><g id="Group_6" data-name="Group 6"><g id="Group_5" data-name="Group 5"><g id="Group_1" data-name="Group 1"><path id="Path_1" data-name="Path 1" class="cls-1" d="M142.9,135.5V496.9H144L324.1,316.7Z" transform="translate(-33.4 -26)"/></g><g id="Group_2" data-name="Group 2"><path id="Path_2" data-name="Path 2" class="cls-2" d="M504.3,135.5H142.9L324.2,316.7,144,496.9H504.4Z" transform="translate(-33.4 -26)"/></g><g id="Group_3" data-name="Group 3"><path id="Path_3" data-name="Path 3" class="cls-3" d="M76.3,570.7a6.1,6.1,0,0,1-6.1-6.1,5.8,5.8,0,0,1,1.8-4.3L315.5,316.7,37.4,38.6A6,6,0,0,1,37,30a6.2,6.2,0,0,1,8.7-.4l.3.4L328.5,312.4a6.2,6.2,0,0,1,0,8.7L80.6,568.9A5.8,5.8,0,0,1,76.3,570.7Z" transform="translate(-33.4 -26)"/></g></g><g id="Desmantle_Studio" data-name="Desmantle Studio" class="cls-4"><text class="cls-5" transform="translate(501.6 361.2)">Desmantle</text><text class="cls-5" transform="translate(501.6 467.7)">Studio</text></g></g></svg>